<svg width="108" height="108" xmlns="http://www.w3.org/2000/svg">
 <g>
  <title>Layer 1</title>

  <metadata id="svg_41">image/svg+xmlOpenclipart</metadata>
  <g stroke="null" id="svg_26">
   <g stroke="null" transform="matrix(0.137627 0 0 0.149838 -39.2324 -41.9036)" id="svg_5">
    <polygon stroke="null" id="svg_6" fill="#D9AC80" points="668.7777404785156,440.46899795532227 764.3777770996094,489.6690101623535 860.3777770996094,538.4689979553223 764.3777770996094,587.6690101623535 668.7777404785156,636.8689613342285 573.1777648925781,587.6690101623535 477.177734375,538.4689979553223 573.1777648925781,489.6690101623535 "/>
    <polygon stroke="null" id="svg_7" fill="#D7BAA4" points="788.3777770996094,620.069034576416 788.3777770996094,575.6690101623535 740.3777770996094,600.069034576416 740.3777770996094,644.4689979553223 766.7777404785156,612.069034576416 "/>
    <polygon stroke="null" id="svg_8" fill="#A67E4F" points="668.7777404785156,636.8689613342285 668.7777404785156,833.268985748291 860.3777770996094,735.268985748291 860.3777770996094,538.4689979553223 788.3777770996094,575.6690101623535 786.7777404785156,576.4689979553223 786.7777404785156,619.6690101623535 766.7777404785156,612.069034576416 740.3777770996094,644.4689979553223 740.3777770996094,600.069034576416 "/>
    <polygon stroke="null" id="svg_9" fill="#926E43" points="668.7777404785156,833.268985748291 668.7777404785156,636.8689613342285 573.1777648925781,587.6690101623535 477.177734375,538.4689979553223 477.177734375,735.268985748291 "/>
    <polygon stroke="null" id="svg_10" fill="#F2D3BA" points="549.1777648925781,501.6690101623535 740.3777770996094,600.069034576416 786.7777404785156,576.4689979553223 788.3777770996094,575.6690101623535 597.1777648925781,477.268985748291 573.1777648925781,489.6690101623535 "/>
   </g>
   <g stroke="null" transform="matrix(0.137627 0 0 0.149838 -39.2324 -41.9036)" id="svg_11"/>
   <g stroke="null" transform="matrix(0.137627 0 0 0.149838 -39.2324 -41.9036)" id="svg_12"/>
   <g stroke="null" transform="matrix(0.137627 0 0 0.149838 -39.2324 -41.9036)" id="svg_13"/>
   <g stroke="null" transform="matrix(0.137627 0 0 0.149838 -39.2324 -41.9036)" id="svg_14"/>
   <g stroke="null" transform="matrix(0.137627 0 0 0.149838 -39.2324 -41.9036)" id="svg_15"/>
   <g stroke="null" transform="matrix(0.137627 0 0 0.149838 -39.2324 -41.9036)" id="svg_16"/>
   <g stroke="null" transform="matrix(0.137627 0 0 0.149838 -39.2324 -41.9036)" id="svg_17"/>
   <g stroke="null" transform="matrix(0.137627 0 0 0.149838 -39.2324 -41.9036)" id="svg_18"/>
   <g stroke="null" transform="matrix(0.137627 0 0 0.149838 -39.2324 -41.9036)" id="svg_19"/>
   <g stroke="null" transform="matrix(0.137627 0 0 0.149838 -39.2324 -41.9036)" id="svg_20"/>
   <g stroke="null" transform="matrix(0.137627 0 0 0.149838 -39.2324 -41.9036)" id="svg_21"/>
   <g stroke="null" transform="matrix(0.137627 0 0 0.149838 -39.2324 -41.9036)" id="svg_22"/>
   <g stroke="null" transform="matrix(0.137627 0 0 0.149838 -39.2324 -41.9036)" id="svg_23"/>
   <g stroke="null" transform="matrix(0.137627 0 0 0.149838 -39.2324 -41.9036)" id="svg_24"/>
   <g stroke="null" transform="matrix(0.137627 0 0 0.149838 -39.2324 -41.9036)" id="svg_25"/>
  </g>
 </g>
</svg>